<svg id="r1" 
  xmlns="http://www.w3.org/2000/svg" 
  viewBox="0 0 64 64">
  <path class="machine" style="fill: none; stroke: #fff" d="M35.81,11a.68.68,0,0,0,.49-.2.69.69,0,0,0,0-1,.7.7,0,1,0-1,1A.7.7,0,0,0,35.81,11ZM26.15,9.85H24.92a.7.7,0,1,0,0,1.4h1.23a.7.7,0,1,0,0-1.4Zm7.34,6.77a.7.7,0,0,0-.7-.7H28.58a.7.7,0,1,0,0,1.4h4.21A.7.7,0,0,0,33.49,16.62Zm-1.31,1.73a.71.71,0,0,0-.7-.7H29.9a.7.7,0,0,0,0,1.4h1.58A.7.7,0,0,0,32.18,18.35Zm14.44,7.71V20.64H48V16h-1.4v3.22h-.56V16h-1.4v3.22H44V17.42h-1.4v3.22h2.66v5.42a2.41,2.41,0,0,0-1.58,1.57h-4.4A2.39,2.39,0,0,0,37.09,26,3.4,3.4,0,0,0,34,24h-.73V22.26a11.34,11.34,0,0,0,7.1-5.2l-.57-1A10.14,10.14,0,0,0,41,11.28,10.31,10.31,0,0,0,31.89,1.07l-.53-1-.67,0a11.31,11.31,0,0,0-11,8.62h-.07c-1.4,0-2.49,1.4-2.49,3.18S18.25,15,19.65,15l.36,0a11.31,11.31,0,0,0,8.09,7.33V24h-.74A3.4,3.4,0,0,0,24,26.81a18.93,18.93,0,0,0-3.79,1.33c-3,1.44-4.52,3.44-4.52,5.79,0,3,2.54,5,7.16,5.71a.77.77,0,0,1,.05,1.51,2.3,2.3,0,0,1-.4.05l.08,1.4a3.91,3.91,0,0,0,.61-.08A2.15,2.15,0,0,0,24,42.2v1.38h0a94.92,94.92,0,0,0,2.41,19H24.94V64H29.5l1.68-20.42h1V46.8a2.79,2.79,0,0,0,2.1,2.7v1a2.37,2.37,0,0,0,0,4.54v.3a2.79,2.79,0,0,0-2.1,2.7v1a2.8,2.8,0,0,0,2.18,2.73A2.89,2.89,0,0,0,37.2,64h1.16V62.6H37.2a1.49,1.49,0,0,1-1.49-1.49v-6a2.38,2.38,0,0,0,0-4.54v-7H37.4V38.12H36.27V34.91H37.4V30.67A2.39,2.39,0,0,0,39.24,29h4.4a2.38,2.38,0,1,0,3-3ZM33.1,11a2.82,2.82,0,0,0,2,2v1.64a10,10,0,0,1-2-1.57A9.52,9.52,0,0,1,31.57,11Zm2.71-2.1a1.41,1.41,0,1,1-1.4,1.4A1.41,1.41,0,0,1,35.81,8.9Zm.7,4.12a2.82,2.82,0,0,0,2-2h1c0,.1,0,.19,0,.28a8.84,8.84,0,0,1-1.27,4.57,9.26,9.26,0,0,1-1.8-.51Zm2.9-3.42h-.89a2.82,2.82,0,0,0-2-2v-3A8.9,8.9,0,0,1,39.41,9.6ZM31.19,2.41a8.88,8.88,0,0,1,3.92,1.17v4a2.82,2.82,0,0,0-2,2H30.93a9.8,9.8,0,0,1,.26-7.19ZM29,6.8c-3.19-.34-4.45-2.1-4.86-2.9a9.83,9.83,0,0,1,6-2.48A10.94,10.94,0,0,0,29,6.33C29,6.49,29,6.64,29,6.8Zm-10.42,5A1.77,1.77,0,0,1,19.47,10c0,.41-.07.82-.07,1.24a10.69,10.69,0,0,0,.24,2.28C19.12,13.55,18.56,12.82,18.56,11.79Zm2.24-.51a9.85,9.85,0,0,1,2.31-6.34,7.34,7.34,0,0,0,6,3.28,11.07,11.07,0,0,0,9.4,9.08,9.89,9.89,0,0,1-17.73-6ZM29.5,22.5a9.39,9.39,0,0,0,1.19.07,11.87,11.87,0,0,0,1.19-.07V24H29.5Zm-4.13,4.89a2,2,0,0,1,2-2H30V42.18H25.37ZM24,36.49C22.32,35.94,20.48,35,20.6,34s2-1.54,3.37-1.7Zm-.91,1.77c-2.22-.32-6-1.31-6-4.33,0-3.52,4.89-5.15,6.87-5.66V30.9a12.87,12.87,0,0,0-1.76.32c-2.29.63-2.9,1.77-3,2.62C18.91,36.2,22.53,37.52,24,38v.64A2,2,0,0,0,23.06,38.26ZM28.21,62.6h-.36a91.85,91.85,0,0,1-2.46-19h4.38Zm5.4-3.54v-1a1.4,1.4,0,0,1,.7-1.21v3.4A1.39,1.39,0,0,1,33.61,59.06ZM35,53.79a1,1,0,1,1,1-1A1,1,0,0,1,35,53.79ZM34.31,48a1.41,1.41,0,0,1-.7-1.21V43.58h.7Zm-2.92-5.83V31.41H34V30H31.39v-.56H34v-1.4H31.39V25.4H34a2,2,0,0,1,2,2v6.12H34.66a3,3,0,1,0,0,6H36v.84H33.75v1.4H36v.42Zm3.48-4.06h-.21a1.61,1.61,0,1,1,0-3.21h.21Zm2.53-8.91V27.46a1,1,0,0,1,0,1.75Zm8.52.1a1,1,0,1,1,1-1A1,1,0,0,1,45.92,29.31Z"/>
</svg>