<svg xmlns="http://www.w3.org/2000/svg" viewBox="0 0 64 64">
  <path style="fill:#fff" d="M23,18.34c-4.37-2-10.28.87-11.54,5.42a10.13,10.13,0,0,0,5.6,12C27.87,40.17,32.88,22.79,23,18.34Zm4.58,11.24a8.36,8.36,0,0,1-11.34,4.93,6.93,6.93,0,0,1-3.86-5.82c-.06-1.19,1.14-4.66-.14-5.43C14.5,19.7,19,17.12,23.1,19.17a9.17,9.17,0,0,1,4.49,10.42ZM64,25.79c-.14-.71-1.33-.41-1.76-.59-1-.43-1.39-1.47-2.18-2.19A2.57,2.57,0,0,0,60.29,19c-1.53-1.48-2-.25-3.5.05-3.13.65-1.94-3.88-5.13-3.42-1.94.29-1.29,1.47-2,2.45-.43.57-.47.59-1.31.78-1.14.27-.79.26-1.72-.29-1.31-.77-3-1.31-3.83.8A2.86,2.86,0,0,0,44,22.68c-.78,1.14-.79,1.76-2,2.37s-2.13.94-2.18,2.65c0,1.46.54,1.57,1.69,2.17.44.22.79.1,1.18.4.69.55.77,1.75,1.27,2.45a2.54,2.54,0,0,0-.72,3.93c1.8,1.88,2.35-.37,3.89-.52,3.28-.33,2,5.29,5.5,4.21,1.52-.47,1.39-2.3,2.71-3.12,1.69-1,1.72-.45,3.14.24s3.75-.72,3.85-2.38c.08-1.33-2-1.66-2.15-2.78-.24-2.27,2-1.47,3-2C64.61,29.42,64.09,27.08,64,25.79ZM40.9,25.72h0v0Zm22.3,2v1.6c-3.7-.12-4.56,3.45-1.62,5.45a25.58,25.58,0,0,0-2.12,2.53C57,34.91,53.38,36,53.38,39.52a8,8,0,0,0-2.8.26c-.13-2.86-3-6.49-5.2-2.89-.41-.31-2.48-1.62-2.49-2.12,0-.69,1.54-1.5,1.56-2.52,0-2.3-2.19-2.79-4-2.94a11.11,11.11,0,0,0,.41-3.38h0c3-.44,5-3.11,1.77-5.15a21.76,21.76,0,0,0,2.55-2.53,5.08,5.08,0,0,0,3.56,1.88c2-.15,1.61-2,1.72-3.57.84.09,2.05-.47,2.72,0,.24.15.57,1.56.78,1.86,1.22,1.68,3,1.7,4.54.28a6.24,6.24,0,0,0,2.19,2.2c-1.17,1.6-1.26,3.52.44,4.73,1.36,1,1.93.27,2,2.08Zm-6.08-1.05c1.13,4.16-4.17,8.11-7.77,5.58a4.88,4.88,0,0,1-.66-7.32c.28-.27,1.46-1.34,1.84-.88.18.22-1.85,2.29-2,2.72-1.49,3.52,3.39,7,6.35,4.78a4.26,4.26,0,0,0,.27-6.61,23.85,23.85,0,0,0-4.73-1.65c0-.73,2.61,0,3,.1a5.16,5.16,0,0,1,3.76,3.29ZM49.5,48.78c0-.56.18-1.52-.09-2.05-.56-1.12-.64-.21-1.39-.79-1-.75-.92-1.35-1.42-2.49h0c1.15-1.08.78-4.21-1.31-4.06-1.49.11-.94,2.76-2.71,1.6-1.17-.76-.53-2.33-2.08-2.75a2.48,2.48,0,0,0-2.4.88c-.28.36-.21,1-.47,1.33s-1,.57-1.32,1c-.93-1.17-3.37-1.2-3.77.53-.34,1.45,1.47,1.81.35,3.27-.75,1-3,1.15-2.42,2.92.47,1.36,1.68.48,2.31,1.26.44.54,0,1.4.46,2-2.85,1.79.93,4.87,2.7,2.4.53.4,1.16.62,1.7,1,0-.13.29,1.58.46,1.49.32.81,2.6,1.08,3.15.56s0-1.62.43-2.19,1.52-.43,2.09-.85a1.93,1.93,0,0,0,2.87.56c1-.79.71-1.56.4-2.57-.25-.85-.87-1.26.14-2.16C47.79,49.06,49,49.55,49.5,48.78ZM48,48.73c-2.41.26-3.23,2.71-1.16,3.92-.53.64-1,1.31-1.58,1.91-2.23-2-3.94-1-4.23,1.86-2-.42-1.89-.23-3.05-1.74s-2.48-1.7-3.53,0a11.75,11.75,0,0,0-1.89-2c2.29-1.72,1.15-4.05-1.41-4.05.09-.52-.35-1.25-.17-1.73s.49-.29.88-.69c.63-.64.92-.09,1.43-1.1a2.36,2.36,0,0,0-.53-2.64,6.07,6.07,0,0,0,1.67-1.68c1.6,1.19,3,.63,3.84-.84.35-.59,0-.83.63-1.2.47-.27,1.52.15,2.07.09,0,2.81,2.69,3.54,4.21,1.24a17.41,17.41,0,0,0,1.92,1.61c-1.78,1.72-1.39,5,1.7,4.75a6.11,6.11,0,0,0,.2,2.13,7.11,7.11,0,0,0-1,.13Zm-8.87-5.28c-4.45.88-3.39,8.42,1.39,7.75C46,50.44,44.25,42.44,39.16,43.45Zm-1.94,4.89c-.15-.34-.53-.22-.68,0-.2-2.87,4.32-5.8,6.32-3C45.42,48.92,38.93,52.23,37.22,48.34ZM29.6,39.1h0c1.73-1.33,2.11-2.38,4.24-1.61,2.68,1,3.68-.66,4.66-3.06.84-2.08.42-3.1-1.54-4.11-.77-.4-1.55-.55-1.88-1.44-.46-1.22.73-2.5.16-3.75,1.47-.7,3.35-.91,3.94-2.65.52-1.53-.42-3.85-1.32-5.1-1-1.42-1.53-.87-3.09-.36s-2,.43-3.36-.85c-1.81-1.77-1.43-1.73-1.15-4s-.48-2.8-2.41-3.64-2.76-.94-4.27.59C21.8,11,20.29,10,18,10.68c.06-.44-1.64-4.15-2.23-3.48-1.64-1.7-5.56,2.08-5.88,3.61s.37,2.48-.59,4A10.44,10.44,0,0,1,8.2,16.59c-.69.41-1.85-.53-2.56-.73C2.92,15.12-.21,18.2.26,21.06c.29,1.77,2,1.87,3,3,1.36,1.48.51,3,.59,5-1-.2-3.4.73-3.68,1.6-.35,1.06.68,3.75,1.38,4.52A2.31,2.31,0,0,0,4,36c1.77-.34,1.74-1.25,3.19.16.9.87,2.41,2.09,2.47,3.3s-1.16,2.35-.51,3.68c1.11,2.28,5.65,3.29,7,1.14.6-.94.31-1.69,1.49-2.11a8.64,8.64,0,0,1,3.65.13c1.09.45.88,1.2,1.49,2.09a3.73,3.73,0,0,0,3.92,1.37C30.54,45.16,29.82,42.06,29.6,39.1Zm-.54-.4c-1.33.28.15,3.92-.12,4.71-.45,1.34-3.2,1.36-4.45,1.86-.46-2.76-2.78-3.9-5.37-3.94s-3.59,1.09-4.29,3.49A26.55,26.55,0,0,0,9.64,43c1-3,1.07-4.8-1.22-7.06-2.13-2.1-3.32-1.57-6-.45-.65-1.6-1.31-3.22-2-4.78,3,1,5.22-3.19,4.53-5.73-.52-2-3.09-2.08-3.56-3.85-.18-.71,1.13-3.83,1.72-4.34,1.39-1.2,2.51.7,4,.74,1.71.05,2.84-1.53,3.39-3s-.21-3.55.57-4.79c1-1.53,3.45-1,4.71-2.23.3.9.91,2.67,1.78,3.22a15.34,15.34,0,0,0,3.31.56c2.23-.11,3.16-1.42,4.24-3.2a19.62,19.62,0,0,0,4.77,2.3c-.67,1.91-1.29,4.4,0,6.19,2,2.77,4.39,1.12,6.87.39.29,1.35,2.12,4.65,1.46,5.72-.57.92-2.79,1.07-3.52,2.19a6.37,6.37,0,0,0-.46,4.22c.52,1.9,2.3,2.25,4,2.89a32.86,32.86,0,0,0-2.12,5.26C32.78,35.85,31.31,35.77,29.06,38.7Z"/>
</svg>